<?xml version="1.0" encoding="UTF-8" standalone="no"?>
<svg
   xmlns:dc="http://purl.org/dc/elements/1.1/"
   xmlns:cc="http://creativecommons.org/ns#"
   xmlns:rdf="http://www.w3.org/1999/02/22-rdf-syntax-ns#"
   xmlns:svg="http://www.w3.org/2000/svg"
   xmlns="http://www.w3.org/2000/svg"
   xmlns:sodipodi="http://sodipodi.sourceforge.net/DTD/sodipodi-0.dtd"
   xmlns:inkscape="http://www.inkscape.org/namespaces/inkscape"
   inkscape:export-ydpi="1.5875"
   inkscape:export-xdpi="1.5875"
   inkscape:export-filename="C:\Users\maxjh\eclipse-workspace\BFE\icon\16.png"
   width="256mm"
   height="256mm"
   viewBox="0 0 256 256"
   version="1.1"
   id="svg65"
   inkscape:version="1.0 (4035a4fb49, 2020-05-01)"
   sodipodi:docname="Logo.svg">
  <defs
     id="defs59" />
  <sodipodi:namedview
     id="base"
     pagecolor="#ffffff"
     bordercolor="#666666"
     borderopacity="1.0"
     inkscape:pageopacity="0.0"
     inkscape:pageshadow="2"
     inkscape:zoom="0.7"
     inkscape:cx="467.48049"
     inkscape:cy="470.11316"
     inkscape:document-units="mm"
     inkscape:current-layer="layer1"
     inkscape:document-rotation="0"
     showgrid="false"
     inkscape:window-width="1920"
     inkscape:window-height="1001"
     inkscape:window-x="-9"
     inkscape:window-y="-9"
     inkscape:window-maximized="1" />
  <metadata
     id="metadata62">
    <rdf:RDF>
      <cc:Work
         rdf:about="">
        <dc:format>image/svg+xml</dc:format>
        <dc:type
           rdf:resource="http://purl.org/dc/dcmitype/StillImage" />
        <dc:title></dc:title>
      </cc:Work>
    </rdf:RDF>
  </metadata>
  <g
     inkscape:label="Ebene 1"
     inkscape:groupmode="layer"
     id="layer1">
    <path
       sodipodi:nodetypes="cc"
       id="path28"
       d="M 6.4144275,79.209372 C 14.3075,102.03375 7.5507576,149.24784 9.4166238,180.55209"
       style="fill:none;stroke:#000000;stroke-width:0.312415px;stroke-linecap:butt;stroke-linejoin:miter;stroke-opacity:1" />
    <path
       sodipodi:nodetypes="csc"
       id="path30"
       d="M 47.41398,132.16759 C 66.218296,124.89155 73.097172,85.345212 41.366362,79.061938 27.137373,76.24434 6.4144275,79.209372 6.4144275,79.209372"
       style="fill:none;stroke:#000000;stroke-width:0.264583px;stroke-linecap:butt;stroke-linejoin:miter;stroke-opacity:1" />
    <path
       sodipodi:nodetypes="csc"
       id="path32"
       d="m 47.41398,132.16759 c 21.947294,0.44564 28.228129,54.96863 -20.414925,54.96863 -14.174205,2e-5 -17.5824312,-6.58413 -17.5824312,-6.58413"
       style="fill:none;stroke:#000000;stroke-width:0.264583px;stroke-linecap:butt;stroke-linejoin:miter;stroke-opacity:1" />
    <path
       sodipodi:nodetypes="ccsssc"
       id="path34"
       d="m 21.711601,139.34914 0.377976,32.78945 c 0,0 11.524531,0.03 17.481399,-0.2835 0,0 11.254597,-4.08131 10.96131,-15.40252 -0.314005,-12.12104 -7.465031,-15.78051 -15.969494,-16.81995 -8.504465,-1.03943 -12.851191,-0.28348 -12.851191,-0.28348 z"
       style="fill:none;stroke:#000000;stroke-width:0.264583px;stroke-linecap:butt;stroke-linejoin:miter;stroke-opacity:1" />
    <path
       sodipodi:nodetypes="ccsc"
       id="path36"
       d="m 22.089577,91.629647 0.09449,34.868303 c 0,0 28.160949,3.501 28.348213,-18.61533 C 50.702704,87.755224 22.089577,91.629647 22.089577,91.629647 Z"
       style="fill:none;stroke:#000000;stroke-width:0.264583px;stroke-linecap:butt;stroke-linejoin:miter;stroke-opacity:1" />
    <path
       sodipodi:nodetypes="csc"
       id="path40"
       d="m 6.4144275,79.209372 c 48.5142915,-9.270842 68.1509275,9.41943 68.1977435,25.605048 0.04014,13.87963 -4.931056,20.65919 -15.142652,27.41412"
       style="fill:none;stroke:#000000;stroke-width:0.264583px;stroke-linecap:butt;stroke-linejoin:miter;stroke-opacity:1" />
    <path
       sodipodi:nodetypes="csc"
       id="path42"
       d="m 19.055017,186.22173 c 16.452716,5.19365 54.933798,-5.67254 55.856734,-28.44625 0.919702,-22.694 -15.442232,-25.54694 -15.442232,-25.54694"
       style="fill:none;stroke:#000000;stroke-width:0.264583px;stroke-linecap:butt;stroke-linejoin:miter;stroke-opacity:1" />
    <path
       sodipodi:nodetypes="ccc"
       id="path85"
       d="m 34.762386,139.6306 v 31.0216 c 0,0 6.15207,0.85748 8.009649,-0.44283"
       style="fill:none;stroke:#000000;stroke-width:0.264583px;stroke-linecap:butt;stroke-linejoin:miter;stroke-opacity:1" />
    <path
       sodipodi:nodetypes="ccc"
       id="path89"
       d="M 34.504409,125.92686 V 94.090703 c 0,0 3.989782,-2.019517 9.276649,0.985131"
       style="fill:none;stroke:#000000;stroke-width:0.264583px;stroke-linecap:butt;stroke-linejoin:miter;stroke-opacity:1" />
    <path
       sodipodi:nodetypes="cc"
       id="path130"
       d="M 85.467737,73.455646 C 94.882186,92.597789 76.557948,196.51901 94.437164,192.85029"
       style="fill:none;stroke:#000000;stroke-width:0.264583px;stroke-linecap:butt;stroke-linejoin:miter;stroke-opacity:1" />
    <path
       sodipodi:nodetypes="cc"
       id="path132"
       d="m 94.437164,192.85029 c 7.012366,-0.74304 9.705856,-1.39319 13.606776,-4.08668"
       style="fill:none;stroke:#000000;stroke-width:0.264583px;stroke-linecap:butt;stroke-linejoin:miter;stroke-opacity:1" />
    <path
       sodipodi:nodetypes="cc"
       id="path134"
       d="m 117.05321,184.86269 c -3.94236,-2.82103 -5.11188,-24.26233 -4.66438,-46.64628"
       style="fill:none;stroke:#000000;stroke-width:0.264583px;stroke-linecap:butt;stroke-linejoin:miter;stroke-opacity:1" />
    <path
       sodipodi:nodetypes="cc"
       id="path136"
       d="m 108.04394,188.76361 c -4.89571,-6.30711 -6.30063,-40.21249 -4.55107,-50.5262"
       style="fill:none;stroke:#000000;stroke-width:0.264583px;stroke-linecap:butt;stroke-linejoin:miter;stroke-opacity:1" />
    <path
       id="path138"
       d="m 108.04394,188.76361 9.00927,-3.90092"
       style="fill:none;stroke:#000000;stroke-width:0.264583px;stroke-linecap:butt;stroke-linejoin:miter;stroke-opacity:1" />
    <path
       sodipodi:nodetypes="ccc"
       id="path140"
       d="m 103.49287,138.23741 34.70005,-0.28408 c 0,0 11.63082,-1.01407 5.42689,-17.89723"
       style="fill:none;stroke:#000000;stroke-width:0.264583px;stroke-linecap:butt;stroke-linejoin:miter;stroke-opacity:1" />
    <path
       sodipodi:nodetypes="cc"
       id="path142"
       d="m 143.61981,120.0561 c -1.27276,3.07594 -40.00262,2.8442 -40.00262,2.8442"
       style="fill:none;stroke:#000000;stroke-width:0.264583px;stroke-linecap:butt;stroke-linejoin:miter;stroke-opacity:1" />
    <path
       id="path144"
       d="m 103.61719,122.9003 0.06,-33.885518"
       style="fill:none;stroke:#000000;stroke-width:0.264583px;stroke-linecap:butt;stroke-linejoin:miter;stroke-opacity:1" />
    <path
       sodipodi:nodetypes="cc"
       id="path146"
       d="m 103.67719,89.01478 c 0,0 36.29202,-4.063932 42.39343,1.677736"
       style="fill:none;stroke:#000000;stroke-width:0.264583px;stroke-linecap:butt;stroke-linejoin:miter;stroke-opacity:1" />
    <path
       sodipodi:nodetypes="cc"
       id="path148"
       d="m 146.07062,90.692516 c 2.37608,-3.813859 10.47564,-21.721141 -3.91136,-21.550155"
       style="fill:none;stroke:#000000;stroke-width:0.264583px;stroke-linecap:butt;stroke-linejoin:miter;stroke-opacity:1" />
    <path
       sodipodi:nodetypes="cc"
       id="path150"
       d="m 85.467737,73.455645 c 27.769073,0.01741 42.289843,-3.449084 56.691523,-4.313286"
       style="fill:none;stroke:#000000;stroke-width:0.264583px;stroke-linecap:butt;stroke-linejoin:miter;stroke-opacity:1" />
    <path
       sodipodi:nodetypes="ccc"
       id="path152"
       d="m 146.07062,90.692516 6.31363,2.488626 c 0,0 13.85252,-19.80152 -6.22257,-23.468174"
       style="fill:none;stroke:#000000;stroke-width:0.264583px;stroke-linecap:butt;stroke-linejoin:miter;stroke-opacity:1" />
    <path
       sodipodi:nodetypes="ccc"
       id="path154"
       d="m 112.83303,122.85861 -0.0233,-32.247088 c 0,0 31.00131,-2.14506 35.90805,1.16159"
       style="fill:none;stroke:#000000;stroke-width:0.264583px;stroke-linecap:butt;stroke-linejoin:miter;stroke-opacity:1" />
    <path
       sodipodi:nodetypes="ccc"
       id="path156"
       d="m 143.61981,120.0561 6.43527,-0.25901 c 0,0 9.70346,18.98605 -11.86216,18.15624"
       style="fill:none;stroke:#000000;stroke-width:0.264583px;stroke-linecap:butt;stroke-linejoin:miter;stroke-opacity:1" />
    <path
       sodipodi:nodetypes="cc"
       id="path158"
       d="m 168.53068,69.345435 c 7.45044,27.959721 2.1193,82.509805 3.96569,127.675835"
       style="fill:none;stroke:#000000;stroke-width:0.264583px;stroke-linecap:butt;stroke-linejoin:miter;stroke-opacity:1" />
    <path
       sodipodi:nodetypes="cssc"
       id="path160"
       d="m 172.49637,197.02127 c 5.99894,3.59263 39.59361,1.05998 58.72053,5.17595 8.02595,1.72712 13.50455,-3.17969 12.93715,-10.28033 -0.56741,-7.10065 -5.60866,-13.60082 -5.60866,-13.60082"
       style="fill:none;stroke:#000000;stroke-width:0.264583px;stroke-linecap:butt;stroke-linejoin:miter;stroke-opacity:1" />
    <path
       sodipodi:nodetypes="cc"
       id="path162"
       d="m 238.54539,178.31607 c -9.38449,7.063 -48.27767,2.8779 -48.27767,2.8779"
       style="fill:none;stroke:#000000;stroke-width:0.264583px;stroke-linecap:butt;stroke-linejoin:miter;stroke-opacity:1" />
    <path
       id="path164"
       d="m 190.26772,181.19397 0.99176,-43.19798"
       style="fill:none;stroke:#000000;stroke-width:0.264583px;stroke-linecap:butt;stroke-linejoin:miter;stroke-opacity:1" />
    <path
       sodipodi:nodetypes="ccc"
       id="path166"
       d="m 191.25948,137.99599 40.58726,0.32524 c 0,0 13.86672,-2.14708 6.5655,-19.79503"
       style="fill:none;stroke:#000000;stroke-width:0.264583px;stroke-linecap:butt;stroke-linejoin:miter;stroke-opacity:1" />
    <path
       sodipodi:nodetypes="cc"
       id="path168"
       d="m 238.41224,118.5262 c -8.96596,3.88123 -47.68526,2.74353 -47.68526,2.74353"
       style="fill:none;stroke:#000000;stroke-width:0.264583px;stroke-linecap:butt;stroke-linejoin:miter;stroke-opacity:1" />
    <path
       id="path170"
       d="M 190.72698,121.26973 190.26365,84.295113"
       style="fill:none;stroke:#000000;stroke-width:0.264583px;stroke-linecap:butt;stroke-linejoin:miter;stroke-opacity:1" />
    <path
       id="path172"
       d="m 190.26365,84.295113 c 0,0 45.45283,-2.492983 51.89421,2.325323"
       style="fill:none;stroke:#000000;stroke-width:0.264583px;stroke-linecap:butt;stroke-linejoin:miter;stroke-opacity:1" />
    <path
       sodipodi:nodetypes="csc"
       id="path174"
       d="m 242.15786,86.620436 c 0,0 14.03912,-21.072307 -1.28065,-23.702154 -5.83922,-1.002382 -32.28727,4.423577 -72.34653,6.427153"
       style="fill:none;stroke:#000000;stroke-width:0.264583px;stroke-linecap:butt;stroke-linejoin:miter;stroke-opacity:1" />
    <path
       id="path176"
       d="m 238.54539,178.31607 2.26834,-2.79572"
       style="fill:none;stroke:#000000;stroke-width:0.264583px;stroke-linecap:butt;stroke-linejoin:miter;stroke-opacity:1" />
    <path
       sodipodi:nodetypes="cc"
       id="path178"
       d="m 231.84674,138.32123 c 0,0 18.43835,-2.1553 7.44144,-20.31462"
       style="fill:none;stroke:#000000;stroke-width:0.264583px;stroke-linecap:butt;stroke-linejoin:miter;stroke-opacity:1" />
    <path
       id="path180"
       d="m 239.28818,118.00661 -0.87594,0.51959"
       style="fill:none;stroke:#000000;stroke-width:0.264583px;stroke-linecap:butt;stroke-linejoin:miter;stroke-opacity:1"
       sodipodi:nodetypes="cc" />
    <path
       sodipodi:nodetypes="cc"
       id="path182"
       d="m 239.28818,118.00661 c 0,0 -10.63169,3.2203 -42.96402,3.37881"
       style="fill:none;stroke:#000000;stroke-width:0.264583px;stroke-linecap:butt;stroke-linejoin:miter;stroke-opacity:1" />
    <path
       id="path184"
       d="m 242.15786,86.620436 1.64695,3.270089"
       style="fill:none;stroke:#000000;stroke-width:0.264583px;stroke-linecap:butt;stroke-linejoin:miter;stroke-opacity:1" />
    <path
       sodipodi:nodetypes="cc"
       id="path186"
       d="m 243.80481,89.890525 c 0,0 11.25421,-13.379973 3.10348,-23.464438"
       style="fill:none;stroke:#000000;stroke-width:0.264583px;stroke-linecap:butt;stroke-linejoin:miter;stroke-opacity:1" />
    <path
       sodipodi:nodetypes="cc"
       id="path188"
       d="m 243.80481,89.890525 c -4.05739,-6.13434 -47.47865,-2.632041 -47.47865,-2.632041"
       style="fill:none;stroke:#000000;stroke-width:0.264583px;stroke-linecap:butt;stroke-linejoin:miter;stroke-opacity:1" />
    <path
       sodipodi:nodetypes="cc"
       id="path190"
       d="m 196.32616,87.258484 -0.002,34.126936"
       style="fill:none;stroke:#000000;stroke-width:0.264583px;stroke-linecap:butt;stroke-linejoin:miter;stroke-opacity:1" />
    <path
       sodipodi:nodetypes="cc"
       id="path192"
       d="m 194.77829,178.40708 0.33398,-40.35105"
       style="fill:none;stroke:#000000;stroke-width:0.264583px;stroke-linecap:butt;stroke-linejoin:miter;stroke-opacity:1" />
    <path
       sodipodi:nodetypes="cc"
       id="path194"
       d="m 240.81373,175.52035 c -6.68999,5.97526 -46.03544,2.88673 -46.03544,2.88673"
       style="fill:none;stroke:#000000;stroke-width:0.264583px;stroke-linecap:butt;stroke-linejoin:miter;stroke-opacity:1" />
    <path
       sodipodi:nodetypes="cc"
       id="path196"
       d="m 240.81373,175.52035 c 12.3407,18.1006 -0.75462,25.46205 -0.75462,25.46205"
       style="fill:none;stroke:#000000;stroke-width:0.264583px;stroke-linecap:butt;stroke-linejoin:miter;stroke-opacity:1" />
    <path
       style="fill:none;stroke:#000000;stroke-width:0.264583px;stroke-linecap:butt;stroke-linejoin:miter;stroke-opacity:1"
       d="m 190.26772,181.19397 4.51057,-2.78689"
       id="path339" />
    <path
       style="fill:none;stroke:#000000;stroke-width:0.264583px;stroke-linecap:butt;stroke-linejoin:miter;stroke-opacity:1"
       d="m 196.32616,87.258484 -6.06251,-2.963373"
       id="path341" />
    <path
       style="fill:none;stroke:#000000;stroke-width:0.264583px;stroke-linecap:butt;stroke-linejoin:miter;stroke-opacity:1"
       d="m 112.80973,90.61152 -9.13254,-1.59674"
       id="path343" />
    <path
       style="fill:none;stroke:#000000;stroke-width:0.264583px;stroke-linecap:butt;stroke-linejoin:miter;stroke-opacity:1"
       d="m 22.089577,172.13859 12.67281,-1.48639"
       id="path345" />
    <path
       style="fill:none;stroke:#000000;stroke-width:0.264583px;stroke-linecap:butt;stroke-linejoin:miter;stroke-opacity:1"
       d="M 34.504407,94.090703 22.089577,91.629647"
       id="path347" />
    <path
       style="fill:none;stroke:#000000;stroke-width:0.264583px;stroke-linecap:butt;stroke-linejoin:miter;stroke-opacity:1"
       d="m 59.469519,132.22854 -12.055541,-0.061"
       id="path349" />
    <path
       style="fill:#aa0000;stroke-width:0.714286"
       d="M 86.81865,705.75921 C 67.504921,703.59162 50.585475,696.81567 41.145109,687.46774 l -4.482449,-4.43855 -0.443182,-8.09223 c -1.584621,-28.93415 -1.226661,-66.67547 1.306356,-137.73508 3.398716,-95.34536 3.215316,-140.17063 -0.733539,-179.28571 -1.983356,-19.646 -5.706369,-40.00378 -9.65369,-52.78729 -0.776633,-2.51514 -1.282212,-4.70284 -1.123509,-4.86154 1.307356,-1.30736 41.554711,-4.44902 63.660696,-4.96929 62.624078,-1.47385 99.130848,8.55638 123.329448,33.88478 19.01668,19.90453 28.19302,49.46569 24.83708,80.01149 -4.21346,38.351 -25.50777,73.02604 -53.31535,86.81719 -3.25743,1.61552 -5.92261,3.18098 -5.92261,3.47881 0,0.58767 0.82707,0.78007 7.88231,1.83372 9.70197,1.4489 18.84084,6.36738 27.51142,14.80641 28.59731,27.83366 35.17031,83.14204 14.77046,124.28572 -17.73962,35.77835 -52.1459,57.946 -99.80704,64.30475 -10.15948,1.35544 -34.068414,1.94449 -42.14286,1.03829 z m 47.5,-54.88628 16.07143,-0.48751 5.35337,-2.75184 c 17.38941,-8.93885 29.93944,-23.47324 34.29486,-39.71741 3.57596,-13.33709 1.12287,-36.40746 -5.20795,-48.9788 -10.20225,-20.25894 -27.66275,-29.5462 -61.67395,-32.80443 -11.36416,-1.08868 -34.043124,-1.43725 -39.105108,-0.60105 l -2.767346,0.45715 0.454604,53.64213 c 0.250031,29.50318 0.64726,57.74035 0.882731,62.74928 l 0.428129,9.10714 17.5989,-0.0636 c 9.67939,-0.035 24.83104,-0.28295 33.67033,-0.55109 z M 127.6797,477.29188 c 20.71341,-3.94544 35.8028,-11.32263 46.88464,-22.92186 11.6334,-12.17653 16.88941,-26.57279 16.96012,-46.45385 0.0673,-18.91007 -4.13607,-29.99659 -15.70719,-41.42858 -12.38333,-12.23442 -30.28712,-19.02613 -56.58528,-21.46531 -9.1906,-0.85243 -34.077847,-0.56393 -35.659164,0.41338 -0.426209,0.26341 -0.682748,25.34397 -0.682748,66.74885 0,52.37151 0.18786,66.41124 0.892857,66.72779 0.491072,0.22049 8.767857,0.28913 18.392855,0.15252 14.12758,-0.20051 19.04244,-0.54218 25.50391,-1.77294 z"
       id="path363"
       transform="scale(0.26458333)" />
    <path
       style="fill:#aa0000;stroke-width:0.505076"
       d="m 537.75221,262.3292 c -28.03,1.28454 -55.80112,5.66975 -83.68849,8.56404 -43.08255,5.02146 -86.45755,7.37871 -129.82462,7.52639 6.80789,15.76471 7.76226,33.23316 9.16883,50.13175 2.70581,46.18763 0.23813,92.46726 -1.62098,138.63843 -2.41563,61.66993 -6.71953,123.38212 -4.40098,185.12338 1.24455,20.37801 2.28092,41.2889 9.56579,60.57942 2.70894,6.37127 6.83331,14.1065 14.3622,15.27771 12.35671,-0.34589 24.80459,-1.97197 36.67623,-5.49073 6.80397,-2.14392 13.25622,-5.33124 19.10904,-9.40803 -7.828,-13.40852 -9.94955,-29.14734 -12.57597,-44.19955 -5.20215,-34.45426 -6.8067,-69.33926 -6.60034,-104.1528 0.12208,-14.15913 0.082,-28.49026 2.73766,-42.43528 3.22766,-0.89109 7.17818,-0.32135 10.66355,-0.61257 40.46723,-0.82796 80.95479,-0.47782 121.41587,-1.51329 8.23404,-0.83583 15.76989,-6.14455 20.45756,-12.83702 8.40624,-12.88644 6.16098,-29.38367 2.0647,-43.36652 -0.88694,-2.75527 -1.47046,-5.77532 -2.66349,-8.34758 -12.9669,4.97228 -27.1137,5.27073 -40.78995,6.58498 -36.83416,2.56398 -73.77908,2.52111 -110.68262,2.65338 0,-43.09984 0,-86.19968 0,-129.29952 31.34032,-3.25822 62.8257,-5.36462 94.34962,-5.03143 18.46537,-0.0977 37.22201,0.39018 55.10758,5.42108 3.89184,1.18394 7.75439,3.03445 11.17382,4.97185 4.33217,-6.4841 7.19317,-13.99309 10.05767,-21.26187 4.55574,-13.00181 8.20647,-27.4018 4.54121,-41.06375 -3.35116,-11.46024 -16.11675,-17.16923 -27.31851,-16.46825 -0.42846,0.005 -0.85693,0.0105 -1.28538,0.0158 z"
       id="path365"
       transform="scale(0.26458333)" />
    <path
       style="fill:#aa0000;stroke-width:0.505076"
       d="m 900.0083,238.3292 c -19.94524,0.55371 -39.69229,3.83302 -59.51019,5.92432 -63.17313,7.71603 -126.50296,14.4014 -190.06677,17.87861 -4.00913,0.44604 -8.39837,0.12304 -12.22222,0.8955 6.6256,28.31512 10.28411,57.31001 12.1386,86.33647 2.97007,38.24826 2.42744,76.63434 2.53706,114.96404 -0.0205,70.33488 -1.91467,140.65654 -1.52737,210.99363 0.18614,22.9765 -0.0175,46.00505 1.62124,68.92814 11.12882,4.80707 23.57043,5.29911 35.5112,6.37462 54.4349,3.47659 109.22168,1.94869 163.40057,9.02627 10.26969,1.16546 20.32818,3.8109 30.57043,5.0093 10.22779,0.27971 21.07755,-1.86091 28.65123,-9.24426 10.08322,-8.76075 12.48364,-23.17989 10.10745,-35.76671 -2.8395,-16.00612 -10.33531,-31.08711 -19.63682,-44.16655 -9.39806,4.84255 -19.45457,8.37538 -29.9086,10.09991 -20.21009,3.79782 -40.81584,4.33559 -61.32277,4.21171 -23.38437,0.1788 -46.77806,-0.32564 -70.08328,-2.36439 -7.18046,-0.7251 -14.58207,-0.80822 -21.59694,-2.30639 0.45351,-46.5419 1.85328,-93.07645 3.04254,-139.60657 0.35732,-8.05837 0.23296,-16.36479 0.98821,-24.2749 38.64522,-0.4857 77.30204,0.37039 115.95145,0.46028 13.31326,-0.16584 26.67678,0.65425 39.95829,-0.3636 14.79282,-3.46405 27.13325,-16.1637 29.10403,-31.40253 1.95015,-13.71392 -1.78246,-27.58637 -6.98327,-40.17625 -1.3711,-1.18727 -3.61032,1.05956 -5.25752,0.92174 -23.68387,6.11282 -48.32284,6.72136 -72.62593,7.94269 -33.51639,1.23796 -67.08373,1.31272 -100.60714,0.37353 -2.87735,0.71529 -1.47746,-2.74696 -1.88484,-4.2896 -0.91294,-45.34457 -1.64895,-90.69858 -1.76474,-136.05215 1.03458,-1.48344 4.38674,-0.45572 6.17657,-0.99638 47.69508,-2.07071 95.53919,-3.64079 143.22305,-0.4888 14.68179,1.35995 29.79402,2.08536 43.71895,7.33562 2.65386,2.40819 4.47886,0.57571 5.68834,-2.07751 9.44952,-17.07374 18.89808,-35.34591 19.22623,-55.30945 0.0897,-10.0285 -5.03341,-20.38412 -14.40552,-24.69547 -6.85243,-3.68552 -14.54907,-4.49054 -22.21152,-4.09487 z"
       id="path367"
       transform="scale(0.26458333)" />
    <path
       style="fill:#4400aa;stroke-width:1.01015"
       d="m 391.31036,527.31923 c -2.90667,52.44038 -1.93563,105.49405 7.90946,157.22497 2.32535,9.04616 3.60887,19.47924 9.67745,26.76879 10.71439,-2.96385 20.62824,-8.70643 31.02471,-12.73739 -10.6785,-18.38201 -10.92491,-40.48232 -13.54433,-61.03925 -2.51612,-38.09512 -3.87614,-76.35141 -2.04201,-114.51027 -10.80784,0 -21.61569,0 -32.42353,0 -0.20058,1.43105 -0.40117,2.8621 -0.60175,4.29315 z"
       id="path369"
       transform="scale(0.26458333)" />
    <path
       style="fill:#4400aa;stroke-width:1.01015"
       d="m 394.32503,338.18395 c -2.60353,6.59692 -0.88931,14.78701 -1.54087,21.95503 -0.14007,34.42913 -0.048,68.85876 -0.075,103.2881 10.77497,0 21.54993,0 32.32489,0 -0.096,-40.06844 0.23336,-80.14503 -0.30384,-120.20815 -10.14003,-1.62218 -20.20992,-3.82536 -30.4052,-5.03498 z"
       id="path371"
       transform="scale(0.26458333)" />
    <path
       style="fill:#4400aa;stroke-width:1.01015"
       d="m 555.24707,454.14828 c -3.22599,0.71491 -8.2193,-0.92914 -10.61252,1.50536 5.6456,14.18788 6.08693,30.1463 4.16293,45.10371 -2.00581,7.85484 -8.83786,12.91542 -13.61141,18.64836 7.4397,1.1589 15.58044,-2.00587 22.41276,-5.22044 12.7946,-6.14751 18.38173,-21.04342 16.11426,-34.52253 -0.79796,-8.97733 -3.48287,-17.6874 -7.28332,-25.83211 -3.72756,0.10588 -7.45513,0.21177 -11.1827,0.31765 z"
       id="path373"
       transform="scale(0.26458333)" />
    <path
       style="fill:#4400aa;stroke-width:1.01015"
       d="m 563.59858,267.59954 c -0.9494,3.02625 3.83651,6.39244 4.17478,9.83912 5.70925,21.69371 -3.93681,43.375 -12.5184,62.882 -1.58435,3.79512 5.52788,3.47274 7.40582,5.40577 4.10456,1.1423 8.47381,4.70939 12.69661,4.13149 8.188,-11.30234 13.79451,-24.81948 16.41893,-38.54561 1.44251,-11.13189 0.26967,-23.28877 -8.15817,-31.59094 -5.42002,-5.44238 -12.5689,-10.17099 -20.01957,-12.12183 z"
       id="path375"
       transform="scale(0.26458333)" />
    <path
       style="fill:#4400aa;stroke-width:1.01015"
       d="m 720.5175,321.16919 c -0.19347,45.02227 0.83797,90.24511 1.61387,135.25193 6.05922,1.87346 12.78307,0.50486 19.08044,0.94505 0,-42.31001 0,-84.62001 0,-126.93001 -6.87558,-3.08287 -13.50725,-6.98401 -20.69431,-9.26697 z"
       id="path377"
       transform="scale(0.26458333)" />
    <path
       style="fill:#4400aa;stroke-width:1.01015"
       d="m 939.17804,265.6838 c -2.02944,5.29612 -0.72288,11.84468 -2.87065,17.38962 -3.8788,15.8014 -11.30444,30.42929 -19.55001,44.35596 1.79179,2.25278 2.52386,8.4826 5.96622,8.19368 14.07561,-18.60702 24.72103,-43.21683 18.54379,-66.79832 -0.493,-0.89101 -0.74093,-3.06674 -2.08935,-3.14094 z"
       id="path379"
       transform="scale(0.26458333)" />
    <path
       style="fill:#4400aa;stroke-width:1.01015"
       d="m 904.24294,450.25367 c 0.52632,7.08175 3.94999,14.42215 4.65222,21.78338 2.80697,13.35335 0.24897,27.51376 -7.84644,38.5831 -0.61691,3.6619 4.58625,-1.59596 5.21255,-2.56879 9.97903,-9.11477 11.89568,-23.50055 8.38501,-35.9856 -2.33131,-7.3695 -4.39768,-16.78515 -10.40334,-21.81209 z"
       id="path381"
       transform="scale(0.26458333)" />
    <path
       style="fill:#4400aa;stroke-width:1.01015"
       d="m 906.47435,669.9066 c -6.89179,4.12858 1.11811,9.16745 2.98969,13.98602 8.92373,14.9656 14.39726,32.06523 15.03522,49.46419 2.38935,1.64129 2.94898,-4.48006 3.51777,-6.10629 3.93638,-21.4509 -5.70442,-42.87595 -17.35571,-60.32387 -0.95779,-2.79299 -3.06256,2.60241 -4.18697,2.97995 z"
       id="path383"
       transform="scale(0.26458333)" />
    <path
       style="fill:#4400aa;stroke-width:1.01015"
       d="m 723.64463,536.4106 c -1.68614,48.79198 -1.73042,97.63166 -3.86502,146.40899 5.21423,-2.69984 10.08466,-5.99536 15.03983,-9.13083 0.81872,-50.21666 1.5242,-100.43793 1.34161,-150.66268 -6.26939,0.0619 -14.70975,-2.14694 -12.23226,7.06393 -0.0947,2.10687 -0.18944,4.21373 -0.28416,6.32059 z"
       id="path385"
       transform="scale(0.26458333)" />
    <path
       style="fill:#4400aa;stroke-width:1.01015"
       d="m 84.612658,412.55446 c 0,21.67158 0,43.34317 0,65.01476 14.841842,0.115 29.751202,0.0717 44.446712,-2.28469 0,-39.59653 0,-79.19306 0,-118.78959 -14.80843,-3.02027 -29.629235,-5.97968 -44.446712,-8.95524 0,21.67159 0,43.34317 0,65.01476 z"
       id="path387"
       transform="scale(0.26458333)" />
    <path
       style="fill:#4400aa;stroke-width:1.01015"
       d="m 83.551209,562.42203 c 0.492777,28.81059 -0.440592,57.77294 2.207736,86.47063 10.596208,-0.0971 22.169225,-2.47892 33.120805,-3.44979 4.1014,-1.40795 12.84883,1.51283 10.72613,-5.74022 0.40807,-36.3349 1.11508,-72.73121 -0.24267,-109.03926 -0.46949,-4.8885 -7.52993,-1.73947 -10.64735,-2.86415 -11.73242,-0.2823 -23.469473,-0.16311 -35.20411,-0.22747 0.01315,11.61675 0.02631,23.23351 0.03946,34.85026 z"
       id="path389"
       transform="scale(0.26458333)" />
    <path
       style="fill:#4400aa;stroke-width:1.01015"
       d="m 130.764,291.75836 c -2.93042,-0.86635 -5.03006,1.88942 -1.23507,2.29455 26.98779,2.69896 55.24524,8.07759 76.68584,25.9713 25.27517,20.0673 36.35637,53.75721 33.49506,85.28124 -1.6147,31.09641 -15.50026,62.21393 -39.26132,82.65537 -3.91479,3.63677 -9.51106,6.07013 -12.70362,10.07386 12.20381,1.30495 24.54981,0.52379 36.81138,0.74774 20.40374,-14.1886 40.2542,-31.47601 48.90737,-55.52698 7.27976,-18.77987 7.77637,-39.5521 6.38984,-59.39036 -6.76637,-36.98791 -38.27224,-63.92634 -71.89972,-77.08853 -24.44755,-9.64299 -51.00333,-14.1502 -77.18976,-15.01819 z"
       id="path391"
       transform="scale(0.26458333)" />
    <path
       style="fill:#4400aa;stroke-width:1.01015"
       d="m 206.29855,500.90532 c -1.75519,0.55749 -7.22819,-0.91702 -7.25652,1.61388 23.98638,12.45146 37.47896,38.80824 41.98446,64.5807 0.55481,15.84184 1.65754,31.98746 -0.99042,47.68236 -6.36429,26.4818 -21.31033,51.11053 -43.71918,66.99299 -6.54805,5.73875 -15.41548,8.60254 -21.79276,14.1921 3.04368,2.18678 7.97254,-1.85154 11.38269,-2.2757 33.70575,-12.3589 67.83567,-31.40744 86.26909,-63.42812 14.02589,-24.63184 11.77135,-55.1368 3.40884,-81.23589 -7.10444,-20.86392 -23.42328,-37.849 -43.78202,-46.1888 -7.56218,-3.30679 -17.28037,-1.13572 -25.50418,-1.93352 z"
       id="path393"
       transform="scale(0.26458333)" />
    <path
       style="fill:#aa00d4;stroke-width:0.178571"
       d="m 114.48116,647.56155 c -5.53793,0.71514 -11.11978,1.18416 -16.617261,2.15925 -0.04002,0.29314 0.976252,0.13028 1.255877,0.20065 15.853564,-0.005 31.712384,-0.21124 47.554464,-0.84553 2.14529,0.0663 4.18445,-0.59367 6.06361,-1.58319 0.71121,-0.41883 1.85716,-0.72545 2.3139,-1.29628 -7.31922,0.50423 -14.70505,0.45713 -22.00677,-0.39763 -2.9096,-0.44702 -5.80558,0.40704 -8.70845,0.60299 -3.28512,0.38658 -6.57025,0.77316 -9.85537,1.15974 z"
       id="path395"
       transform="scale(0.26458333)" />
    <path
       style="fill:#aa00d4;stroke-width:0.126269"
       d="m 281.01427,606.40191 c -0.50902,0.12144 -0.20626,0.91857 -0.43871,1.28117 -1.92667,9.52785 -5.55821,18.73282 -10.93444,26.84808 -9.43274,14.77948 -22.63275,26.85175 -37.19796,36.4618 -7.54844,5.01611 -15.5386,9.32655 -23.7139,13.22486 -7.04092,3.36787 -14.26144,6.3622 -21.57811,9.07614 -1.99527,0.64917 -4.01551,1.22225 -5.92417,2.11244 -2.05346,0.82077 -4.52492,1.91067 -6.6452,0.69439 -0.23909,-0.30684 0.46868,-0.5797 0.60273,-0.80916 3.11716,-2.49603 6.63602,-4.41952 10.06158,-6.44095 0.22527,-0.40296 -0.49004,-0.0167 -0.6274,0.054 -10.83297,6.0053 -22.49483,10.46078 -34.51003,13.44133 -13.14408,3.30521 -26.66988,4.86895 -40.19588,5.39348 -0.23108,-0.0463 -0.71173,0.21983 -0.21357,0.23675 4.6851,0.20122 9.37839,-0.16904 14.05244,-0.48137 22.61007,-1.80913 44.94181,-6.84892 66.23158,-14.64971 19.00879,-7.04267 37.34389,-16.32742 53.36764,-28.8314 13.62361,-10.67765 25.63623,-23.96683 32.68386,-39.92594 2.43277,-5.5838 4.35315,-11.43219 5.34528,-17.44793 0.0291,-0.23187 -0.18294,-0.26855 -0.36574,-0.23799 z"
       id="path397"
       transform="scale(0.26458333)" />
    <path
       style="fill:#aa00d4;stroke-width:0.0315673"
       d="m 114.04148,290.56536 c -18.329908,0.0272 -36.639264,1.42465 -54.81791,3.72677 -0.266315,-0.0436 -0.291627,0.12584 -0.257784,0.34756 0,0.2271 0,0.45419 0,0.68129 1.699352,-0.15628 3.404964,-0.24516 5.10741,-0.36545 11.654899,-0.76107 23.332288,-1.21836 35.01286,-1.24005 8.742584,-0.009 17.488494,0.18001 26.213684,0.75223 7.21612,0.46975 14.422,1.15714 21.57805,2.20598 0.0547,-0.11301 0.0545,-0.29159 0.002,-0.40711 -1.19534,-0.21682 -2.40589,-0.3703 -3.60871,-0.55163 -4.50964,-0.65157 -9.03811,-1.16113 -13.56946,-1.6341 -0.6981,-0.0802 -1.47627,-0.16686 -2.00881,-0.67462 -0.32435,-0.29935 -0.26906,-0.82216 0.026,-1.12039 0.61288,-0.64971 1.58929,-0.77188 2.43561,-0.6689 0.49974,0.10224 1.00657,0.15579 1.51713,0.16054 5.08794,0.18185 10.17092,0.50732 15.24089,0.97138 0,-0.22345 0,-0.44691 0,-0.67037 -6.9518,-0.66255 -13.92318,-1.12724 -20.90379,-1.33547 -3.98761,-0.12619 -7.97733,-0.18398 -11.96692,-0.17766 z m 32.88915,3.89701 c -0.007,0.20481 -0.0109,0.45661 0.002,0.63536 0.009,-0.211 0.0127,-0.42608 -0.002,-0.63536 z"
       id="path399"
       transform="scale(0.26458333)" />
    <path
       style="fill:#aa00d4;stroke-width:0.252538"
       d="m 103.57687,345.90842 c -4.683857,0.13011 -9.456813,-0.14275 -14.075056,0.64417 3.759182,1.11527 7.916625,1.75834 11.835536,2.63738 9.54567,1.91205 19.09168,3.89355 28.66083,5.6441 4.23858,-1.29269 8.59677,-2.35065 13.06786,-2.22035 2.21676,-0.10265 4.51488,0.2395 6.67056,0.20941 -2.30213,-1.34026 -5.14119,-1.81056 -7.71405,-2.58441 -12.55946,-3.07826 -25.51578,-4.53844 -38.44568,-4.3303 z"
       id="path401"
       transform="scale(0.26458333)" />
    <path
       style="fill:#aa00d4;stroke-width:0.357143"
       d="m 480.39187,331.86306 c -26.38547,0.1955 -52.76352,1.79172 -79.01506,4.36314 -1.47949,0.22716 -0.20451,1.16672 0.64174,1.10212 8.05544,1.70325 16.20478,3.08373 24.31939,4.39087 36.6344,-2.00549 73.40506,-3.65841 110.06024,-1.23873 4.53747,0.24294 9.00121,1.16486 13.51169,1.59675 -6.7753,-4.75988 -15.26461,-6.10689 -23.24928,-7.53679 -15.29917,-2.29502 -30.82235,-2.68505 -46.26872,-2.67736 z"
       id="path403"
       transform="scale(0.26458333)" />
    <path
       style="fill:#aa00d4;stroke-width:0.357143"
       d="m 806.73883,316.87422 c -27.56912,0.0669 -55.14414,0.74633 -82.67229,2.24191 -2.09213,-0.0556 0.40363,1.04912 0.99051,1.40485 5.64164,3.03283 11.45995,5.71922 17.19797,8.56167 40.57524,-2.79302 81.2987,-4.75107 121.96664,-3.04613 15.79631,0.93814 31.86355,1.77435 47.06028,6.53804 2.46256,0.6861 4.88316,2.24575 7.12751,3.00362 -1.6388,-3.48227 -2.7625,-8.01025 -6.78432,-9.4594 -10.60617,-4.42891 -22.24294,-5.3854 -33.55138,-6.69665 -23.70287,-2.27389 -47.54077,-2.56355 -71.33492,-2.54791 z"
       id="path405"
       transform="scale(0.26458333)" />
    <path
       style="fill:#aa00d4;stroke-width:0.0446429"
       d="m 900.57109,447.5343 c -2.48479,0.5273 -4.96694,1.07189 -7.46649,1.52783 -10.24269,1.89989 -20.57644,3.26803 -30.92597,4.43298 -13.90959,1.54026 -27.86629,2.62489 -41.8336,3.47952 -4.01812,0.24215 -8.03778,0.45881 -12.05875,0.648 -0.15584,0.38583 0.19299,0.29736 0.4621,0.28368 8.17008,-0.23013 16.33907,-0.51207 24.50213,-0.92572 12.2391,-0.62015 24.47414,-1.46162 36.64775,-2.89251 7.33726,-0.88678 14.6701,-1.95029 21.85946,-3.69071 2.9383,-0.73119 5.86587,-1.55721 8.66339,-2.72618 0.0334,-0.0269 0.21119,-0.0804 0.14998,-0.13689 z"
       id="path407"
       transform="scale(0.26458333)" />
    <path
       style="fill:#aa00d4;stroke-width:0.714286"
       d="m 899.08406,670.06699 c -30.37757,9.08827 -62.4655,6.9911 -93.77231,7.43786 -22.86099,-0.077 -45.74262,-0.38115 -68.53378,-2.32486 -3.95678,2.94788 -9.59051,4.57069 -12.42048,8.59933 5.49423,1.82574 12.03221,1.3732 17.91391,2.14648 25.76384,1.97826 51.59596,3.08744 77.43399,2.12819 24.7298,-0.45602 50.24772,-1.17957 73.50534,-10.50095 4.67799,-2.03046 9.12834,-5.01325 11.74944,-9.50474 -1.9587,0.67289 -3.91741,1.34579 -5.87611,2.01869 z"
       id="path411"
       transform="scale(0.26458333)" />
  </g>
</svg>
